<?xml version="1.0" encoding="utf-8"?>
<!DOCTYPE svg PUBLIC "-//W3C//DTD SVG 1.0//EN" "http://www.w3.org/TR/2001/REC-SVG-20010904/DTD/svg10.dtd">
<svg version="1.0" xmlns="http://www.w3.org/2000/svg" width="784px" height="1168px" viewBox="0 0 784 1168" preserveAspectRatio="xMidYMid meet">
 <g fill="#3f4344">
  <path d="M321.3 1022.7 c-1.8 -0.7 -4.3 -2.2 -5.5 -3.5 l-2.3 -2.3 -0.1 -56.2 c0 -36.6 -0.4 -58.6 -1.1 -63.2 -0.9 -5.3 -0.9 -7.1 0 -7.7 0.7 -0.4 0.8 -0.8 0.2 -0.9 -2.6 -0.2 3.5 -1.8 7.2 -1.8 6.3 -0.1 9.2 2.9 10 10.2 0.7 7.1 2 7.3 7.5 1.2 2.3 -2.5 6.6 -5.7 9.7 -7.3 4.9 -2.4 6.7 -2.7 14.7 -2.7 10.2 0.1 13 1.3 20.7 9.1 13.9 14.1 14 46.6 0.1 66.1 -2.5 3.5 -4.9 6.3 -5.3 6.3 -0.4 0 -2.3 1.4 -4.1 3.2 -1.8 1.7 -6.5 4.4 -10.4 5.9 -8.6 3.4 -16.8 3.8 -24.8 1 -3 -1 -6 -1.6 -6.6 -1.2 -0.8 0.5 -0.9 6.2 -0.1 21.5 0.7 12.1 0.7 21.2 0.2 21.7 -1.5 1.5 -6.7 1.9 -10 0.6z m36 -55.3 c8.7 -3 15 -13 16.7 -26.9 1.8 -14.6 -1 -27.7 -7.1 -33.1 -7.8 -6.9 -24.7 -5 -33.1 3.7 l-2.8 2.9 0 26.5 0 26.4 4.8 1.6 c5.5 1.7 14.5 1.3 21.5 -1.1z"/>
  <path d="M238.8 983 c-2.6 -0.4 -8.1 -2.4 -12.2 -4.4 -9 -4.3 -13.6 -10.1 -13.6 -17.2 0 -8.1 2.2 -9.5 7.5 -4.5 1.6 1.6 5.2 4.1 7.9 5.5 2.7 1.4 5.4 3 6 3.5 2 1.7 10.8 3.3 17.6 3.3 13.8 -0.1 20.9 -3.8 23.5 -12.5 2.4 -8.1 2 -12.8 -1.7 -18.3 -2.9 -4.3 -4.7 -5.6 -13.8 -10.1 -5.8 -2.9 -12.9 -6.2 -15.8 -7.4 -11.4 -4.7 -18.1 -10.1 -22.8 -18.6 -8.3 -14.8 -3.9 -34.5 9.9 -43.9 5.2 -3.6 7.8 -4.5 20.4 -7.1 7.7 -1.6 8.5 -1.6 16 0.1 16 3.6 19.8 6.9 19.8 17.3 0 8.5 -1 9.1 -7 4.3 -10 -8 -18.1 -10.3 -28.9 -8 -11.5 2.4 -17.2 11.6 -14.6 23.7 1.5 6.8 5.9 10.8 17.5 15.8 14.5 6.2 25.7 12.2 30.3 16.1 5.4 4.6 8.9 11.4 10.4 20.4 1.7 9.7 -0.6 19.1 -6.5 26.9 -5.1 6.6 -8.5 9.2 -16.7 12.6 -5.5 2.3 -8.3 2.8 -17.5 3.1 -6 0.1 -13.1 -0.1 -15.7 -0.6z"/>
  <path d="M427.5 979.5 c-12.4 -5.4 -18.2 -13.1 -21.9 -29.3 -4.2 -18.5 1.1 -38.2 13.5 -50.2 9.7 -9.4 11.1 -10.3 17.3 -11.4 5.8 -1.1 18 -0.8 22.9 0.4 9.7 2.6 20.6 13 24.9 23.8 2.6 6.8 3.7 25 1.8 33.4 -1.5 7.5 -7.2 18.7 -12.2 24.2 -7 7.9 -18.8 12.6 -31.2 12.6 -5.9 0 -8.5 -0.6 -15.1 -3.5z m25 -10.6 c4.9 -1.2 10.3 -6.8 13.2 -13.6 1.9 -4.6 3.1 -21.4 2.1 -30 -0.7 -6.9 -3.7 -14.5 -7.1 -18.1 -3.5 -3.8 -11.4 -7.4 -15.6 -7.1 -4.1 0.3 -10.5 3.2 -13.9 6.3 -2.8 2.5 -5.7 8.6 -7.1 14.7 -1.7 7.3 -1.3 25.2 0.7 32.1 3.8 13.2 14.2 19.1 27.7 15.7z"/>
  <path d="M522 981 c-7.4 -2.7 -12.3 -7.7 -14 -14.3 -1.4 -5.4 -1.6 -36.3 -0.4 -55.8 l0.6 -9.6 -2.6 -0.5 c-1.4 -0.3 -2.6 -0.1 -2.6 0.3 0 1.3 -8.7 1.1 -9.5 -0.1 -0.4 -0.6 -1 -0.8 -1.4 -0.6 -0.4 0.3 -0.7 -0.4 -0.8 -1.4 -0.2 -2.6 5.7 -6.8 11.5 -8.2 l5 -1.1 0.6 -5.6 c1.5 -13.2 1.8 -15 3.6 -17.9 3.2 -5.2 13.3 -5.7 14.6 -0.8 0.3 1.3 0.1 7 -0.5 12.7 -0.5 5.7 -0.8 10.6 -0.5 10.9 0.3 0.3 6 0.6 12.7 0.7 8.4 0.2 12.3 0.6 12.9 1.5 1.2 1.9 0 5.9 -2.7 8.6 -2.3 2.3 -2.9 2.4 -12.9 2 l-10.4 -0.3 -0.7 21.4 c-1.1 30.1 0.5 40.2 6.7 44.2 2.7 1.7 4.5 2 10 1.6 4 -0.3 7.8 -1.1 9.4 -2.1 3.2 -2.1 3.8 -1.6 2.9 2.3 -1 4.6 -6.2 9.5 -12.8 11.9 -7.1 2.7 -11.6 2.7 -18.7 0.2z"/>
  <path d="M382 840.4 c-17.3 -1.6 -25.8 -2.9 -25.3 -3.7 0.3 -0.5 -0.4 -0.6 -1.7 -0.2 -1.7 0.5 -2.1 0.4 -1.5 -0.5 0.5 -0.8 0.4 -1.1 -0.2 -0.7 -1.3 0.8 -12.7 -2.1 -13.1 -3.3 -0.2 -0.6 -1.6 -1 -3.2 -1 -4.3 0 -13 -2.2 -12.4 -3.2 0.3 -0.4 -0.2 -0.8 -1.2 -0.8 -0.9 0 -4 -1.3 -6.8 -2.9 -2.8 -1.6 -7.8 -4.3 -11.1 -6.1 -14.5 -7.9 -30.7 -21.5 -41 -34.4 -2.2 -2.8 -5.4 -6.6 -7 -8.5 -3.9 -4.5 -10.6 -15.2 -13.3 -21.1 -11 -23.8 -13.3 -31.6 -15.8 -53 -3.3 -27.6 1.4 -57.1 13.2 -82.8 1.9 -4.1 3.4 -7.6 3.4 -7.9 0 -2.2 18.7 -28.1 24.5 -33.9 7.5 -7.5 23 -20.3 27.3 -22.5 1.5 -0.8 3.3 -2 4 -2.7 0.8 -0.7 5.2 -3.1 9.9 -5.3 7.2 -3.4 9 -3.9 10.9 -3 3.2 1.4 3 2.7 -0.4 3.9 -1.5 0.5 -6.9 3.8 -12.1 7.3 -5.1 3.5 -11.2 7.6 -13.4 9.1 -5.9 3.9 -20.1 18.1 -25.8 25.8 -2.7 3.6 -5.3 7 -5.8 7.7 -0.6 0.6 -3 5.9 -5.5 11.7 -2.5 5.7 -5.8 13.1 -7.5 16.3 -1.6 3.3 -4.6 11.3 -6.7 17.9 -3.7 11.9 -3.7 11.9 -4.2 33.2 -0.4 23.5 0.3 31 4.8 48.6 2.7 10.4 6.7 20.2 11.1 27.1 1 1.7 2.3 4 2.9 5.3 0.5 1.2 1.3 2.2 1.8 2.2 0.4 0 2.6 2.8 4.9 6.3 5.2 7.8 29.4 32.7 31.9 32.7 0.4 0 1.7 0.9 2.8 1.9 2.9 2.7 26.6 14.8 35.1 17.9 13.9 5 24.5 7.2 40.9 8.2 8.7 0.6 16.1 1.1 16.5 1.2 0.3 0.1 6 -0.3 12.6 -0.8 6.6 -0.5 12.7 -0.9 13.5 -0.9 0.8 0 1.8 -0.4 2.1 -0.8 0.4 -0.5 4.1 -1.5 8.4 -2.4 4.3 -0.8 8.9 -2.2 10.4 -3.3 1.4 -1 6.4 -3.1 11.1 -4.7 4.7 -1.5 8.8 -3.2 9.1 -3.6 0.3 -0.5 2.1 -1.4 4 -2.1 7.4 -2.8 11.9 -5.2 11.9 -6.2 0 -0.7 0.7 -1.4 1.5 -1.8 0.8 -0.3 1.5 -0.1 1.5 0.4 0 0.6 0.4 1 1 1 0.5 0 0.7 -0.6 0.4 -1.4 -0.5 -1.3 6.2 -6.4 7.9 -5.8 0.4 0.1 0.7 -0.5 0.7 -1.4 0 -0.8 0.4 -1.3 0.8 -1 0.4 0.2 1.7 -0.9 2.7 -2.5 1.1 -1.6 2.3 -2.9 2.7 -2.9 0.4 0 2.3 -1.6 4.2 -3.5 2 -1.9 3.3 -3.5 3.1 -3.5 -0.6 0 6.8 -9.1 11.5 -14.4 2.8 -3 8.1 -14 15 -30.6 3.8 -9.4 8 -24 8 -28.2 0 -2.4 0.5 -7.1 1 -10.6 1.4 -8.2 1.8 -33.8 0.7 -38 -0.8 -3.3 -0.1 -7.6 1.2 -6.8 0.4 0.3 0.7 -0.4 0.7 -1.4 0 -1.3 -0.4 -1.6 -1.1 -1 -0.8 0.6 -1.2 0.5 -1.3 -0.3 -0.1 -0.6 -0.6 -3.2 -1.3 -5.7 -0.6 -2.5 -1.2 -5.7 -1.2 -7.2 -0.1 -1.6 -0.4 -2.8 -0.7 -2.8 -0.3 0 -0.7 -1.5 -0.8 -3.4 -0.2 -1.9 -0.9 -4.7 -1.7 -6.3 -1.7 -3.2 -2 -6.7 -0.5 -5.8 0.6 0.3 1 1.5 1 2.6 0 1.1 0.4 1.8 0.9 1.5 0.5 -0.4 0.7 0.4 0.5 1.6 -0.2 1.3 -0.1 1.7 0.2 1 0.9 -1.9 3.7 3.7 3.1 6 -0.3 1 -0.2 1.6 0.3 1.3 0.4 -0.3 1.5 1.4 2.4 3.7 1.4 3.3 1.5 4.3 0.4 4.9 -1 0.6 -0.8 0.9 0.6 0.9 1.5 0 1.6 0.3 0.6 1.5 -1.1 1.3 -1 1.4 0.2 1 1.1 -0.5 1.7 0.4 2.1 3.2 0.4 2.1 0.7 4.9 0.6 6.3 0 2.3 -0.1 2.3 -0.9 0.5 -0.6 -1.3 -0.7 -0.2 -0.3 3 0.3 2.8 1 5.5 1.5 6 0.6 0.6 0.7 0 0.3 -1.7 -0.4 -1.7 -0.3 -2.8 0.3 -2.8 1.3 0 2.2 5.1 2.7 16.1 0.3 5.1 0.6 9.3 0.8 9.5 0.6 0.6 -2.2 23.5 -3.9 31.7 -2.9 14.6 -11.6 35.7 -20.9 51.2 -8.3 13.8 -17.5 23.9 -34.5 37.5 -2.3 1.9 -5.7 4.7 -7.4 6.2 -1.7 1.5 -3.4 2.8 -3.9 2.8 -0.4 0 -2.6 1.3 -4.8 3 -2.3 1.6 -4.6 2.7 -5.2 2.3 -0.5 -0.3 -0.7 -0.1 -0.4 0.4 0.4 0.6 -2 2 -5.6 3.3 -3.4 1.3 -9 3.8 -12.5 5.6 -3.7 2 -7.8 3.4 -9.8 3.4 -1.9 0 -3.4 0.4 -3.4 0.9 0 0.7 -2.9 1.6 -17 5.1 -9.4 2.3 -29.9 4.1 -38 3.4z m-16.5 -6.4 c-0.3 -0.5 -2.1 -0.9 -3.8 -0.9 l-3.2 0.2 3.5 0.7 c1.9 0.4 3.6 0.8 3.8 0.9 0.2 0 0 -0.3 -0.3 -0.9z"/>
  <path d="M370 793 c-9.7 -1.3 -14.6 -2.9 -24.1 -7.6 -21.6 -10.7 -38.3 -31.6 -43.9 -54.8 -4.2 -17.6 -3 -38.4 3.1 -51.6 7.6 -16.4 28.9 -29.6 51 -31.4 6.3 -0.6 8 -0.4 9.3 0.9 0.9 0.9 1.4 2.1 1 2.6 -0.8 1.4 -6.9 4.2 -16.9 7.9 -10.5 3.9 -19.9 9.8 -22 14 -3.6 6.9 -0.7 14.9 7 19.1 2.2 1.2 4.7 2.8 5.5 3.5 0.9 0.7 2.9 1.5 4.5 1.8 5.1 1 6.9 1.5 11.5 3.3 3.9 1.6 7.9 1.8 31.5 1.8 25.5 0 27.4 -0.2 34.5 -2.4 4.1 -1.3 8.9 -2.5 10.5 -2.8 1.7 -0.3 3.7 -1.1 4.6 -1.9 0.8 -0.8 2 -1.4 2.5 -1.4 1.7 0 9.4 -7.1 10.9 -10.1 2.7 -5.2 2 -7.7 -4.3 -13.8 -6.2 -6 -14.9 -10.6 -26.1 -13.7 -3.5 -1 -5.9 -2 -5.2 -2.2 2 -0.7 1.2 -2.5 -0.9 -1.9 -1.1 0.3 -2 0 -2 -0.5 0 -1.9 14.8 0.1 22.9 3.1 9.4 3.4 15 6.9 19.9 12.3 6 6.7 8.1 10.3 8.8 15.5 1 7.7 1 7.7 9.9 4.8 7.9 -2.7 7.9 -2.7 14.2 -1 5.4 1.5 7 2.5 11.3 7.2 5.8 6.4 7.4 11.2 6.7 20.1 -0.6 8.2 -5 17 -11.9 24.2 -7.2 7.5 -10 9.5 -19 14 -8.4 4.2 -15.3 6 -22.5 6 -4.4 0 -5 0.3 -9.2 5.2 -5.6 6.3 -10.8 11.6 -14.3 14.5 -5.8 4.7 -18.6 11.3 -26.1 13.2 -9.2 2.4 -23.5 3.3 -32.7 2.1z m34.2 -15.6 c5 -1.4 10.5 -3.2 12.1 -4 7.9 -4.2 19.4 -15.2 25 -24 7.3 -11.6 18.2 -58.4 13.6 -58.4 -0.8 0 -2.7 1.6 -4.2 3.5 -4.7 6 -20.1 12.6 -35.2 15.3 -6.3 1 -15.1 1.5 -29 1.5 -25 -0.1 -36.2 -1.7 -49.9 -7.3 -5.5 -2.2 -10.5 -4 -11.2 -4 -2.3 0 -2.6 6.4 -1 17.6 2.1 14.1 3 17.2 7.8 27.2 7.5 15.6 19 25.4 37.2 31.4 14.1 4.7 21.7 4.9 34.8 1.2z m67.8 -36.4 c6.6 -3.5 14.2 -11.1 16.8 -17 3.2 -7.1 3.4 -15.8 0.5 -19.8 -4.5 -6.2 -10.5 -7.2 -19.8 -3.2 -3.8 1.7 -4.5 2.3 -5 5.7 -1.9 12.1 -4 21.7 -6.3 28.5 -2 6.2 -2.3 8 -1.3 9.2 1.1 1.3 1.8 1.3 6.4 -0.1 2.9 -0.8 6.8 -2.3 8.7 -3.3z"/>
  <path d="M375.6 654.2 c0.5 -0.4 1.6 -3.3 2.4 -6.6 2.4 -10.1 -0.1 -17.2 -10.2 -29.7 -7.9 -9.8 -9.6 -17.5 -5.7 -26.4 1.3 -3 1.3 -3 2 3 0.9 8 1 8.2 10.5 20.2 6.6 8.4 8.4 11.4 9 14.9 0.8 5.6 -0.4 17 -1.9 18.7 -0.7 0.6 -2 2.4 -3 4 -1 1.5 -2.3 2.7 -3 2.7 -0.8 0 -0.8 -0.3 -0.1 -0.8z"/>
  <path d="M392 650.6 c0 -0.2 1.4 -3.4 3.2 -7.2 2.3 -5.2 3.2 -8.8 3.6 -14.6 0.4 -7 0.2 -8.2 -2.6 -14.3 -1.7 -3.6 -5.1 -9.2 -7.6 -12.3 -9.4 -12 -11.6 -20.5 -7.6 -29.7 2.3 -5.3 9.2 -12.5 9.9 -10.3 0.2 0.6 -0.1 1.4 -0.8 1.6 -3.5 1.2 -5.5 15.4 -2.8 20.3 2.5 4.8 6.5 10.5 8.2 11.9 3 2.5 10.3 14.5 11.5 19 2.4 8.8 -0.3 18.2 -8.1 28.7 -2.2 2.9 -3.9 5.7 -3.9 6.3 0 0.5 -0.7 1 -1.5 1 -0.8 0 -1.5 -0.2 -1.5 -0.4z"/>
  <path d="M604.6 581.9 c-3.8 -1.1 -9.9 -3.6 -13.5 -5.6 -7 -3.9 -30.8 -19.6 -48.1 -31.9 -5.8 -4 -13.4 -9.4 -17 -11.9 -3.6 -2.5 -8.8 -6.2 -11.7 -8.3 -12.9 -9.3 -32.2 -23 -36.9 -26.2 -2.9 -1.9 -7.8 -5.4 -11.1 -7.7 -8.7 -6.3 -33.2 -23.8 -63.2 -45 -6.4 -4.6 -12.5 -9 -13.7 -9.8 -4.2 -3.1 -7.6 -2.8 -12.9 0.9 -2.7 1.9 -6.3 4.2 -7.9 5.1 -1.6 1 -7 4.7 -12 8.4 -5 3.6 -10.9 7.9 -13.1 9.4 -5.2 3.6 -14.7 10.4 -16 11.5 -0.9 0.7 -9.9 7 -15.9 11.2 -1.8 1.2 -12 8.4 -34 24.2 -2.2 1.6 -7 4.9 -10.6 7.4 -3.6 2.4 -8.5 5.9 -11 7.7 -8.9 6.4 -32.4 23.3 -36.9 26.5 -8.2 5.9 -21.1 14.7 -24.6 16.7 -1.8 1.2 -4.2 2.8 -5.2 3.7 -1 0.9 -4 2.8 -6.8 4.2 -2.7 1.5 -6.8 3.8 -8.9 5.1 -4.6 2.8 -14.8 5.5 -20.5 5.5 -11.8 0 -14.6 -8.2 -5.3 -15.3 2 -1.5 7.7 -5.3 12.7 -8.4 5 -3.1 12.7 -8.1 17.3 -11.2 4.5 -3.1 10.6 -7.2 13.5 -9.1 3 -1.9 8.7 -5.7 12.7 -8.5 4 -2.7 9.1 -6.2 11.4 -7.8 2.2 -1.5 4.9 -3.4 5.8 -4.1 0.9 -0.8 2.8 -2.2 4.2 -3.1 l2.6 -1.7 0 -32.4 c0 -22.4 0.4 -33.1 1.2 -34.9 1.3 -2.8 -0.4 -2.7 24 -2.6 21.9 0 21 -0.7 21.5 17.5 0.6 19.3 0.1 18.5 7.6 13.2 3.4 -2.5 11.8 -8.4 18.7 -13.1 12.5 -8.5 14 -9.6 23.6 -16.7 2.8 -2.1 5.5 -3.8 5.9 -3.8 0.5 0 1.8 -0.8 2.9 -1.9 2.4 -2.1 11.5 -8.6 19.6 -13.9 3 -1.9 5.7 -3.8 6 -4.2 1.2 -1.7 16.3 -11 19.6 -12 6.3 -2.1 9.8 -0.7 26.7 10.7 8.8 5.9 16.7 11.3 17.6 11.8 0.9 0.6 3.4 2.4 5.6 4.1 2.2 1.7 6.7 4.8 9.9 7 3.3 2.1 7.7 5 9.8 6.5 2.1 1.4 5.1 3.5 6.6 4.8 1.5 1.2 5 3.8 7.7 5.6 7.8 5.3 14.5 10 21 14.9 3.3 2.4 10.4 7.5 15.9 11.2 5.4 3.7 10.5 7.4 11.3 8.2 0.8 0.8 4.2 3.3 7.6 5.6 3.3 2.3 8 5.5 10.3 7.1 6.2 4.4 17.4 12.3 21.4 15 1.9 1.3 4.8 3.4 6.4 4.7 1.7 1.3 5.1 3.7 7.7 5.3 2.6 1.7 11.1 7.3 19 12.6 7.9 5.3 17.6 11.5 21.4 13.9 3.9 2.4 8.7 5.5 10.9 6.9 2.1 1.4 5.1 3.4 6.7 4.4 2.5 1.6 2.9 2.5 2.9 6.3 0 3.5 -0.5 4.7 -2.5 6 -3.8 2.5 -10.2 2.6 -17.9 0.3z"/>
  <path d="M355.6 545.2 c-0.4 -0.7 -0.8 -13.2 -0.7 -20.4 l0.1 -2.8 12 0 12.1 0 -0.3 11.8 -0.3 11.7 -11.2 0.3 c-6.1 0.1 -11.4 -0.1 -11.7 -0.6z"/>
  <path d="M389.7 545.3 c-0.4 -0.3 -0.7 -5.7 -0.7 -12 l0 -11.4 11.8 0.3 11.7 0.3 0.3 9.5 c0.4 14.8 1.1 14 -11.7 14 -5.9 0 -11.1 -0.3 -11.4 -0.7z"/>
  <path d="M327.5 541 c-1.7 -0.7 -1.4 -0.9 1.3 -0.9 2 -0.1 3.1 0.3 2.7 0.9 -0.7 1.2 -1.3 1.2 -4 0z"/>
  <path d="M354.6 509.3 c-0.4 -0.8 -0.6 -5.7 -0.6 -10.8 0 -12.5 0 -12.5 13.8 -12.2 l10.7 0.2 0.3 11.6 0.3 11.7 -3.6 0.6 c-6.5 1.3 -20.3 0.5 -20.9 -1.1z"/>
  <path d="M389.4 509.7 c-0.2 -0.7 -0.3 -6.2 -0.2 -12.3 l0.3 -10.9 10.3 -0.2 c13.8 -0.4 13.9 -0.3 13.2 13.7 l-0.5 10.5 -11.3 0.3 c-8.6 0.2 -11.4 -0.1 -11.8 -1.1z"/>
 </g>
 <g fill="#a55617">
  <path d="M371.9 835.5 c-0.3 -0.2 -1.6 -0.5 -3.1 -0.7 -3.2 -0.5 -5 -1.9 -2.2 -1.7 4 0.3 7.9 1.5 6.8 2.1 -0.6 0.4 -1.3 0.6 -1.5 0.3z"/>
  <path d="M375.4 834.9 c-0.3 -0.5 3.1 -0.9 7.5 -0.9 4.9 0 8.1 0.4 8.1 1 0 1.3 -14.8 1.1 -15.6 -0.1z"/>
  <path d="M346.7 831.6 c-4.9 -1.4 -8.3 -3.4 -5 -3.1 5.1 0.6 9.2 1.9 9.7 3.1 0.3 0.8 0.4 1.4 0.3 1.3 -0.1 0 -2.4 -0.6 -5 -1.3z"/>
  <path d="M422 831.1 c0 -0.5 1.4 -1.1 3.1 -1.5 3.7 -0.7 6.2 0.4 3.3 1.5 -2.7 1.1 -6.4 1.1 -6.4 0z"/>
  <path d="M318 819.2 c0 -0.5 -0.6 -0.9 -1.2 -0.9 -2.3 0 -8.8 -3.5 -8.2 -4.4 0.3 -0.5 2.7 0.2 5.4 1.6 4.8 2.4 7.1 4.5 5.1 4.5 -0.6 0 -1.1 -0.4 -1.1 -0.8z"/>
  <path d="M469 811.3 c0 -1.3 6.4 -7.3 7.8 -7.3 0.7 0 1.2 -0.4 1.2 -1 0 -0.5 0.5 -1 1.2 -1 0.7 0 -0.3 1.6 -2.2 3.5 -1.8 1.9 -3.6 3.3 -3.8 3 -0.3 -0.3 -1.3 0.5 -2.3 1.7 -1.1 1.1 -1.9 1.7 -1.9 1.1z"/>
  <path d="M480 800 c0 -0.6 0.8 -1.3 1.8 -1.7 0.9 -0.3 2.7 -1.5 4 -2.6 1.2 -1.1 2.2 -1.5 2.2 -0.9 0 0.6 -0.8 1.6 -1.7 2.1 -1 0.6 -1.4 1.1 -0.9 1.1 1.4 0 -2.7 2.9 -4.1 3 -0.7 0 -1.3 -0.5 -1.3 -1z"/>
  <path d="M493.6 788.7 c0.3 -0.8 1.7 -2 3.1 -2.6 2.4 -1.1 2.5 -1.1 1.3 0.4 -2 2.4 -5.1 3.9 -4.4 2.2z"/>
  <path d="M537.5 699.2 c0.2 -0.9 0.7 -3.4 1 -5.5 0.3 -2.1 1 -3.5 1.6 -3.2 1.1 0.7 1.2 7.5 0.1 9 -1.2 1.7 -3 1.5 -2.7 -0.3z"/>
  <path d="M379 694 c-21.8 -1.5 -36.5 -7.4 -35.8 -14.4 1.1 -11.1 37.3 -17.4 65.8 -11.6 12 2.5 15.3 3.7 19.8 7.5 9 7.6 -3 16.4 -24.3 18 -4.4 0.3 -9.6 0.7 -11.5 0.9 -1.9 0.1 -8.2 0 -14 -0.4z"/>
  <path d="M544 664.4 c0 -1.4 0.4 -2.3 0.9 -2 0.5 0.3 0.7 1.5 0.4 2.6 -0.7 2.8 -1.3 2.5 -1.3 -0.6z"/>
  <path d="M541.1 664.7 c0 -0.9 -0.6 -2.6 -1.3 -3.6 -0.6 -1.1 -0.8 -2.6 -0.3 -3.7 0.6 -1.6 0.9 -1.4 1.7 1.5 0.5 1.8 0.7 4.3 0.5 5.5 -0.3 1.5 -0.5 1.6 -0.6 0.3z"/>
  <path d="M543 658.4 c0 -1.6 0.5 -3.6 1 -4.4 0.6 -1 0.7 -0.2 0.3 2.5 -0.7 4.9 -1.3 5.8 -1.3 1.9z"/>
  <path d="M540 638.5 c-0.7 -0.8 -0.9 -1.5 -0.5 -1.5 0.5 0 0 -0.9 -1 -2 -1 -1.1 -1.5 -2.3 -1.2 -2.7 0.9 -0.9 1.4 -0.3 3.2 4 1.6 4 1.5 4.6 -0.5 2.2z"/>
  <path d="M536 629.5 c-0.9 -1.1 -1 -1.6 -0.2 -1.1 0.6 0.4 1.2 0.2 1.2 -0.4 0 -0.6 -0.7 -1.3 -1.5 -1.6 -0.8 -0.4 -1.2 -1 -0.9 -1.6 0.8 -1.3 3.6 2.9 3.2 4.9 -0.3 1.4 -0.5 1.4 -1.8 -0.2z"/>
  <path d="M466.4 424.6 c-3.5 -1.5 -6.4 -5.1 -6.4 -7.8 0 -3.3 2.9 -4.8 9.2 -4.8 7.3 0 11.5 -1.8 16.6 -7.4 3.7 -4.1 14.2 -21.5 14.2 -23.7 0 -0.6 -1.1 -2 -2.4 -3 -3.3 -2.6 -8.9 -14.7 -17.1 -36.9 -3.8 -10.2 -9.3 -24.8 -12.3 -32.5 -6.8 -17.7 -7 -18.5 -4.7 -20.2 2.9 -2 11.8 -1.7 14.7 0.6 3.2 2.5 7 11.8 14.8 35.6 10.1 31.1 12.1 36.2 14 35 1.3 -0.8 11.4 -32.1 14.5 -44.8 2 -8.6 4.3 -21.5 4.5 -25.9 0 -0.4 1.8 -1.3 3.9 -1.9 8.2 -2.4 12.4 2.3 10.7 11.9 -1.1 6.1 -7.2 25.1 -16.3 50.7 -16.8 47.5 -21.2 56.6 -31.9 67.2 -4.8 4.7 -7.5 6.6 -11.5 7.7 -6.4 1.9 -10.4 2 -14.5 0.2z"/>
  <path d="M216.5 384.4 c-19 -2.9 -35.5 -14.6 -43.4 -30.8 -5.6 -11.6 -7.6 -21.3 -7.5 -37.1 0 -14 1.6 -22.2 6.1 -32.3 7.4 -16.7 21.2 -30.1 36.3 -35.2 11 -3.7 20.1 -4.5 31.8 -2.7 12.6 1.8 18.3 4.9 22 11.7 3.1 6 2.8 14.7 -0.8 18.5 -3.1 3.3 -4.6 3.2 -6.6 -0.8 -3 -5.7 -6.6 -9.7 -11.3 -12.5 -4 -2.3 -5.9 -2.7 -14.7 -3 -9.4 -0.4 -10.6 -0.2 -16.3 2.4 -15.5 6.9 -25.1 27.5 -25.1 53.9 0 23.7 8.2 40 23.8 47.7 6.5 3.2 7 3.3 19.2 3.3 12.3 -0.1 12.6 -0.1 20 -3.7 4.1 -2 9.4 -5.3 11.7 -7.2 5 -4.4 6.3 -4.5 6.3 -0.6 0 9.7 -12.8 22.2 -27.1 26.4 -5.3 1.6 -19.5 2.7 -24.4 2z"/>
  <path d="M410.4 383 c-2.3 -0.5 -7.3 -2.4 -11.1 -4.3 -12.8 -6.5 -18.3 -16.4 -19.1 -34.4 -0.8 -18.4 4.6 -34 15.4 -44.9 7.2 -7.3 13.8 -10.8 22.7 -12.3 7.3 -1.3 16.7 -0.2 21.7 2.4 7 3.7 11 11.3 11 20.7 -0.1 10.7 -4.3 16.8 -16 22.8 -4.4 2.3 -18.1 5.1 -28.5 5.9 -9.3 0.7 -9.7 1.2 -7 10.4 1.9 6.7 4.7 11 9.7 15 3.2 2.6 4.9 3.1 11.3 3.6 9.8 0.8 16.4 -0.6 24.7 -5.2 3.6 -2 6.9 -3.7 7.2 -3.7 1.6 0 0.2 5.2 -2.5 9.3 -3.5 5.3 -5.7 7.1 -14.4 11.5 -6.7 3.4 -17.6 4.8 -25.1 3.2z m2.7 -54.1 c16.3 -4.4 22.6 -12.2 19.6 -24.1 -1 -3.7 -6.4 -6.8 -11.8 -6.8 -6.7 0.1 -12.1 3.8 -16.7 11.7 -2.7 4.6 -6.2 15.6 -6.2 19.6 0 2.4 5.4 2.2 15.1 -0.4z"/>
  <path d="M290.4 382 c-1.2 -0.5 -2.9 -1.9 -3.8 -3.2 -1.5 -2.1 -1.6 -7.7 -1.1 -63.3 0.5 -50 0.4 -62.5 -0.8 -69.3 -1.3 -8.1 -1.3 -8.4 0.7 -9.8 2.4 -1.7 9.5 -1.9 12.9 -0.3 5 2.3 5.2 3.8 4.9 37.1 -0.2 16.9 -0.2 30.8 0 30.8 0.2 0 2.7 -2.3 5.7 -5 11.1 -10.3 24.8 -14.1 36.6 -10.1 5.7 1.8 10.8 7.6 12.5 14.2 0.7 2.5 1 14.7 0.8 33.3 -0.3 28.4 -0.2 29.5 1.8 32.2 1.1 1.5 3.4 3.2 5.1 3.8 4.2 1.5 4.7 2.1 3.3 4.6 -1.7 3.1 -8.6 6 -14.7 6 -4.1 0 -5.8 -0.5 -8.2 -2.5 -5.1 -4.3 -5.4 -6.8 -4.6 -37.8 0.7 -28.2 0.7 -28.2 -1.7 -32.7 -2.6 -5 -5.6 -7 -10.9 -7 -6.9 0 -13.3 2.7 -19.4 8.3 l-5.9 5.4 -1 15.7 c-0.6 10.5 -0.6 21.2 0.1 31.9 0.7 10.7 0.7 16.6 0 17.5 -1.1 1.4 -9.1 1.5 -12.3 0.2z"/>
  <path d="M568.6 381 c-1.6 -1 -3.4 -2.6 -3.9 -3.6 -0.6 -1 -0.7 -15.1 -0.3 -35.4 0.4 -18.6 0.4 -35 0 -36.4 -0.6 -2.5 -0.9 -2.6 -8.1 -2.6 -7.2 0 -7.4 -0.1 -6.8 -2.2 1.1 -3.4 4.5 -6.7 9.5 -9.3 l4.6 -2.3 1.1 -13.4 c1.9 -22.3 5.9 -30.7 17.3 -36.8 5.9 -3.1 7.2 -3.4 15.2 -3.5 7.8 0 8.9 0.2 11.2 2.4 1.8 1.7 2.6 3.5 2.6 5.8 0 6.8 -2.9 8.6 -8.2 4.9 -4.9 -3.4 -13.2 -0.7 -16.7 5.4 -2.4 4.3 -4.4 19.1 -3.9 29 l0.3 6.5 11.3 0.2 c6.3 0.1 12 0.4 12.8 0.7 1.7 0.6 1.8 4.9 0.3 7.8 -1.7 3.2 -7.3 4.9 -15.4 4.7 -4 -0.1 -7.8 0.1 -8.4 0.6 -1 0.5 -1.2 9.6 -1 39.2 0.2 32.6 0.1 38.6 -1.2 39.4 -2.4 1.5 -9.2 0.9 -12.3 -1.1z"/>
 </g>
</svg>